<svg xmlns="http://www.w3.org/2000/svg" width="52.916668mm" height="52.916672mm" viewBox="0 0 52.916668 52.916672">
    <g transform="translate(-78.581253,-121.97292)">
        <path fill="#f0b24e"
              d="m 96.581335,164.90157 c 0.01297,-0.71355 0.606077,-1.33551 1.463136,-1.53429 0.427574,-0.0992 1.194126,-0.45329 1.703449,-0.78693 0.50932,-0.33365 1.43999,-0.68893 2.06815,-0.78951 1.40876,-0.22558 1.86128,-0.95565 1.40451,-2.26594 -0.40354,-1.1576 -0.37433,-2.50823 0.076,-3.51303 0.26961,-0.60158 0.45776,-3.07542 0.67568,-8.88422 l 0.30203,-8.05048 -0.79579,-0.79579 -0.79579,-0.79579 -1.79812,0.31596 c -0.988965,0.17378 -3.072162,0.64467 -4.629328,1.04641 l -2.83121,0.73043 0.93305,2.37591 c 1.003268,2.55472 1.911937,4.77827 3.395721,8.30948 0.515225,1.22617 0.936774,2.42513 0.936774,2.66436 0,0.23922 -0.408145,0.91178 -0.906989,1.49456 -1.084248,1.2667 -2.89938,1.94606 -5.199565,1.94606 -2.737621,0 -4.805359,-0.99332 -5.717174,-2.74647 -0.433243,-0.833 -0.509463,-0.52496 1.055306,-4.26499 0.365302,-0.87313 0.986655,-2.42094 1.380784,-3.43958 0.39413,-1.01865 0.925984,-2.32834 1.181899,-2.91042 1.594143,-3.62591 1.564475,-3.44088 0.665114,-4.14831 -0.853506,-0.67137 -0.86144,-1.66158 -0.01774,-2.2144 0.754139,-0.49413 1.595239,-0.19098 1.869737,0.67389 0.219113,0.69036 0.673141,0.66818 3.052088,-0.14907 4.162933,-1.43012 5.038333,-1.68724 6.326143,-1.85807 1.6771,-0.22248 2.05906,-0.62795 1.45704,-1.54675 -0.41304,-0.63039 -0.41387,-0.72667 -0.0116,-1.34062 0.59337,-0.9056 1.83654,-0.9056 2.42991,0 0.40228,0.61395 0.40145,0.71023 -0.0116,1.34062 -0.60202,0.9188 -0.22006,1.32427 1.45704,1.54675 1.28781,0.17083 2.16321,0.42795 6.32615,1.85807 2.37895,0.81725 2.83298,0.83943 3.05209,0.14907 0.2745,-0.86487 1.1156,-1.16802 1.86973,-0.67389 0.8437,0.55282 0.83577,1.54303 -0.0177,2.2144 -0.89936,0.70743 -0.92903,0.5224 0.66512,4.14831 0.25591,0.58208 0.78777,1.89177 1.18189,2.91042 0.39413,1.01864 1.01549,2.56645 1.38079,3.43958 1.56477,3.74003 1.48855,3.43199 1.05531,4.26499 -0.91182,1.75315 -2.97956,2.74647 -5.71718,2.74647 -2.30018,0 -4.11532,-0.67936 -5.19956,-1.94606 -0.49885,-0.58278 -0.90699,-1.25534 -0.90699,-1.49456 0,-0.23923 0.42155,-1.43819 0.93677,-2.66436 1.48379,-3.53121 2.39245,-5.75476 3.39572,-8.30948 l 0.93305,-2.37591 -2.83121,-0.73043 c -1.55716,-0.40174 -3.64036,-0.87263 -4.62933,-1.04641 l -1.79811,-0.31596 -0.79579,0.79579 -0.7958,0.79579 0.30203,8.05048 c 0.21793,5.8088 0.40607,8.28264 0.67568,8.88422 0.45032,1.0048 0.47954,2.35543 0.076,3.51303 -0.45677,1.31029 -0.004,2.04036 1.40451,2.26594 0.62816,0.10058 1.55882,0.45586 2.06814,0.78951 0.50933,0.33364 1.27588,0.68776 1.70345,0.78693 0.85706,0.19878 1.45017,0.82074 1.46314,1.53429 0.008,0.4315 -0.56794,0.46302 -8.45825,0.46302 -7.890309,0 -8.466094,-0.0315 -8.458252,-0.46302 z M 92.32168,146.51303 c -0.01328,-4.56095 -0.08989,-5.98053 -0.296295,-5.49011 -0.153113,0.36381 -0.378795,0.89959 -0.501515,1.19063 -1.067179,2.53091 -2.973921,7.2766 -3.142215,7.82066 -0.115163,0.37231 -0.402835,1.051 -0.63927,1.50822 -0.236435,0.45721 -0.429882,0.89674 -0.429882,0.97673 0,0.08 1.131094,0.14543 2.513542,0.14543 h 2.513542 z m 5.574157,6.02825 c 0,-0.0678 -0.170498,-0.51431 -0.378884,-0.99219 -0.208386,-0.47788 -0.994489,-2.41669 -1.746895,-4.30846 -3.187949,-8.01543 -2.864561,-7.93386 -2.884383,-0.7276 l -0.01692,6.15156 h 2.513542 c 1.382448,0 2.513542,-0.0555 2.513542,-0.12331 z m 19.297663,-6.02825 c -0.0198,-7.20626 0.30356,-7.28783 -2.88438,0.7276 -0.75241,1.89177 -1.53851,3.83058 -1.7469,4.30846 -0.20839,0.47788 -0.37888,0.92436 -0.37888,0.99219 0,0.0678 1.13109,0.12331 2.51354,0.12331 h 2.51354 z m 5.57317,6.00613 c 0,-0.08 -0.19345,-0.51952 -0.42988,-0.97673 -0.23644,-0.45722 -0.52411,-1.13591 -0.63927,-1.50822 -0.1683,-0.54406 -2.07504,-5.28975 -3.14222,-7.82066 -0.12272,-0.29104 -0.3484,-0.82682 -0.50151,-1.19063 -0.20641,-0.49042 -0.28302,0.92916 -0.2963,5.49011 l -0.0179,6.15156 h 2.51354 c 1.38245,0 2.51354,-0.0654 2.51354,-0.14543 z"/>
    </g>
</svg>